<svg width="28" height="28" viewBox="0 0 28 28" fill="none" xmlns="http://www.w3.org/2000/svg">
<g clip-path="url(#clip0_123_41)">
<path d="M14 0C6.28017 0 0 6.28017 0 14C0 21.7198 6.28017 28 14 28C21.7198 28 28 21.7198 28 14C28 6.28017 21.7198 0 14 0ZM21.2333 12.264L16.0697 17.3332C15.1562 18.2292 13.9802 18.676 12.803 18.676C11.6387 18.676 10.4743 18.2373 9.56433 17.3588L7.34883 15.1807C6.88917 14.7292 6.88333 13.9907 7.33483 13.531C7.78517 13.0702 8.526 13.0643 8.9845 13.517L11.193 15.6882C12.0983 16.5632 13.5275 16.5585 14.4375 15.6672L19.6 10.5992C20.0585 10.1465 20.7947 10.1547 21.2497 10.6143C21.7012 11.074 21.6942 11.8125 21.2333 12.264Z" fill="#FACC15"/>
</g>
<defs>
<clipPath id="clip0_123_41">
<rect width="28" height="28" fill="white"/>
</clipPath>
</defs>
</svg>
