<svg width="44" height="44" viewBox="0 0 44 44" fill="none" xmlns="http://www.w3.org/2000/svg">
<g clip-path="url(#clip0_160_43)">
<path d="M22 3.96367C27.874 3.96367 28.5707 3.98567 30.8898 4.092C33.2878 4.202 35.7573 4.74833 37.5045 6.4955C39.2682 8.25917 39.798 10.7048 39.908 13.1102C40.0143 15.4293 40.0363 16.126 40.0363 22C40.0363 27.874 40.0143 28.5707 39.908 30.8898C39.7998 33.275 39.2407 35.7683 37.5045 37.5045C35.7408 39.2682 33.297 39.798 30.8898 39.908C28.5707 40.0143 27.874 40.0363 22 40.0363C16.126 40.0363 15.4293 40.0143 13.1102 39.908C10.7433 39.7998 8.217 39.2278 6.4955 37.5045C4.741 35.75 4.202 33.2805 4.092 30.8898C3.98567 28.5707 3.96367 27.874 3.96367 22C3.96367 16.126 3.98567 15.4293 4.092 13.1102C4.20017 10.7342 4.76483 8.22617 6.4955 6.4955C8.2555 4.7355 10.7103 4.202 13.1102 4.092C15.4293 3.98567 16.126 3.96367 22 3.96367ZM22 0C16.0252 0 15.2753 0.0256667 12.9287 0.132C9.52783 0.287833 6.15083 1.23383 3.69233 3.69233C1.22467 6.16 0.287833 9.52967 0.132 12.9287C0.0256667 15.2753 0 16.0252 0 22C0 27.9748 0.0256667 28.7247 0.132 31.0713C0.287833 34.4685 1.2375 37.8547 3.69233 40.3077C6.15817 42.7735 9.53333 43.7122 12.9287 43.868C15.2753 43.9743 16.0252 44 22 44C27.9748 44 28.7247 43.9743 31.0713 43.868C34.4703 43.7122 37.851 42.7643 40.3077 40.3077C42.7772 37.8382 43.7122 34.4703 43.868 31.0713C43.9743 28.7247 44 27.9748 44 22C44 16.0252 43.9743 15.2753 43.868 12.9287C43.7122 9.52783 42.7643 6.149 40.3077 3.69233C37.8455 1.23017 34.4612 0.286 31.0713 0.132C28.7247 0.0256667 27.9748 0 22 0Z" fill="white"/>
<path d="M22 10.7031C15.7612 10.7031 10.703 15.7613 10.703 22.0001C10.703 28.239 15.7612 33.2971 22 33.2971C28.2388 33.2971 33.297 28.239 33.297 22.0001C33.297 15.7613 28.2388 10.7031 22 10.7031ZM22 29.3335C17.9502 29.3335 14.6667 26.05 14.6667 22.0001C14.6667 17.9503 17.9502 14.6668 22 14.6668C26.0498 14.6668 29.3333 17.9503 29.3333 22.0001C29.3333 26.05 26.0498 29.3335 22 29.3335Z" fill="white"/>
<path d="M33.7444 12.8957C35.2024 12.8957 36.3844 11.7138 36.3844 10.2557C36.3844 8.79769 35.2024 7.61572 33.7444 7.61572C32.2863 7.61572 31.1044 8.79769 31.1044 10.2557C31.1044 11.7138 32.2863 12.8957 33.7444 12.8957Z" fill="white"/>
</g>
<defs>
<clipPath id="clip0_160_43">
<rect width="44" height="44" fill="white"/>
</clipPath>
</defs>
</svg>
