<svg width="44" height="44" viewBox="0 0 44 44" fill="none" xmlns="http://www.w3.org/2000/svg">
<g clip-path="url(#clip0_160_35)">
<path d="M43.0797 11.341C42.5737 9.43614 41.0832 7.93464 39.1893 7.42498C35.7592 6.50098 22 6.50098 22 6.50098C22 6.50098 8.24083 6.50098 4.80883 7.42498C2.91683 7.93464 1.42633 9.43431 0.920333 11.341C0 14.795 0 22 0 22C0 22 0 29.205 0.920333 32.659C1.42633 34.5638 2.91683 36.0653 4.81067 36.575C8.24083 37.499 22 37.499 22 37.499C22 37.499 35.7592 37.499 39.1912 36.575C41.0832 36.0653 42.5737 34.5656 43.0815 32.659C44 29.205 44 22 44 22C44 22 44 14.795 43.0797 11.341ZM17.501 28.5431V15.4568L28.9997 22L17.501 28.5431Z" fill="white"/>
</g>
<defs>
<clipPath id="clip0_160_35">
<rect width="44" height="44" fill="white"/>
</clipPath>
</defs>
</svg>
