<svg width="80" height="80" viewBox="0 0 80 80" fill="none" xmlns="http://www.w3.org/2000/svg">
<path d="M10.6519 17.785C10.5102 13.705 13.6885 9.94165 17.9869 9.94165H62.0202C66.3169 9.94165 69.4969 13.705 69.3552 17.785C69.2185 21.705 69.3952 26.7817 70.6735 30.9216C71.9552 35.075 74.1169 37.7 77.6569 38.0367V41.8617C74.1169 42.1983 71.9552 44.8233 70.6735 48.9767C69.3952 53.1167 69.2185 58.1933 69.3552 62.1133C69.4969 66.1933 66.3186 69.9566 62.0202 69.9566H17.9869C13.6902 69.9566 10.5102 66.1933 10.6535 62.1133C10.7902 58.1933 10.6119 53.1167 9.33521 48.9767C8.05355 44.8233 5.88688 42.1983 2.34521 41.8617V38.0367C5.88522 37.7 8.05355 35.075 9.33521 30.9216C10.6119 26.7833 10.7885 21.705 10.6519 17.785Z" fill="#6C19FF"/>
<path d="M41.7367 56.6933C49.0134 56.6933 53.3984 53.13 53.3984 47.2533C53.3984 42.8117 50.2701 39.595 45.6234 39.0867V38.9017C49.0367 38.3467 51.7151 35.1767 51.7151 31.6367C51.7151 26.5934 47.7334 23.3083 41.6651 23.3083H28.0117V56.6933H41.7367ZM33.3234 27.5417H40.3867C44.2267 27.5417 46.4067 29.2534 46.4067 32.3534C46.4067 35.6617 43.8701 37.5133 39.2717 37.5133H33.3217L33.3234 27.5417ZM33.3234 52.4584V41.4684H40.3401C45.3651 41.4684 47.9717 43.3183 47.9717 46.9284C47.9717 50.5367 45.4351 52.4584 40.6484 52.4584H33.3234Z" fill="url(#paint0_linear_237_121)"/>
<defs>
<linearGradient id="paint0_linear_237_121" x1="29.7434" y1="25.9017" x2="45.1301" y2="51.9217" gradientUnits="userSpaceOnUse">
<stop stop-color="white"/>
<stop offset="1" stop-color="#F1E5FC"/>
</linearGradient>
</defs>
</svg>
