<svg width="80" height="80" viewBox="0 0 80 80" fill="none" xmlns="http://www.w3.org/2000/svg">
<path fill-rule="evenodd" clip-rule="evenodd" d="M38.1718 5.47668C39.3035 4.84168 40.6968 4.84168 41.8268 5.47668C47.4185 8.61501 64.2452 18.0617 69.8385 21.2C70.9702 21.8333 71.6668 23.0067 71.6668 24.2767C71.6668 30.5533 71.6668 49.445 71.6668 55.7217C71.6668 56.9917 70.9702 58.165 69.8385 58.8C64.2468 61.9383 47.4202 71.385 41.8268 74.5233C40.6952 75.1583 39.3018 75.1583 38.1718 74.5233C32.5802 71.385 15.7535 61.9383 10.1602 58.8C9.03016 58.165 8.3335 56.9933 8.3335 55.7233C8.3335 49.4467 8.3335 30.555 8.3335 24.2783C8.3335 23.0083 9.03016 21.835 10.1618 21.2C15.7518 18.0617 32.5818 8.61501 38.1718 5.47668Z" fill="#283593"/>
<path fill-rule="evenodd" clip-rule="evenodd" d="M8.84016 57.34C8.39683 56.7466 8.3335 56.1833 8.3335 55.425C8.3335 49.185 8.3335 30.4016 8.3335 24.16C8.3335 22.8966 9.0285 21.73 10.1568 21.1C15.7285 17.98 32.4985 8.58831 38.0702 5.46665C39.1985 4.83498 40.7268 4.84831 41.8552 5.47998C47.4268 8.59998 64.1402 17.9116 69.7118 21.0316C70.1618 21.285 70.5052 21.59 70.8118 21.9916L8.84016 57.34Z" fill="#5C6BC0"/>
<path fill-rule="evenodd" clip-rule="evenodd" d="M39.9998 16.6667C52.8782 16.6667 63.3332 27.1217 63.3332 40C63.3332 52.8784 52.8782 63.3334 39.9998 63.3334C27.1215 63.3334 16.6665 52.8784 16.6665 40C16.6665 27.1217 27.1215 16.6667 39.9998 16.6667ZM39.9998 28.3334C46.4382 28.3334 51.6665 33.56 51.6665 40C51.6665 46.4384 46.4382 51.6667 39.9998 51.6667C33.5615 51.6667 28.3332 46.4384 28.3332 40C28.3332 33.56 33.5598 28.3334 39.9998 28.3334Z" fill="white"/>
<path fill-rule="evenodd" clip-rule="evenodd" d="M70.8084 22.0084C71.6684 22.8134 71.6518 24.0267 71.6518 24.9817C71.6518 31.3067 71.5984 49.2967 71.6668 55.6217C71.6734 56.2817 71.4551 56.9767 71.1284 57.5L39.3218 40L70.8084 22.0084Z" fill="#3949AB"/>
</svg>
