<svg width="80" height="80" viewBox="0 0 80 80" fill="none" xmlns="http://www.w3.org/2000/svg">
<path d="M68.3332 8.33331H11.6665L16.6665 65L39.9998 71.6666L63.3332 65L68.3332 8.33331Z" fill="#0277BD"/>
<path d="M40 13.3333V66.5L58.6667 61.1666L62.8333 13.3333H40Z" fill="#039BE5"/>
<path d="M55.1667 21.6667H40V28.3334H48.1667L47.6667 35H40V41.6667H47.3333L46.8333 49.1667L40 51.5V58.5L53.1667 54.1667L54.3333 35L55.1667 21.6667Z" fill="white"/>
<path d="M39.9998 21.6667V28.3334H25.1665L24.6665 21.6667H39.9998ZM32.3332 35L32.6665 41.6667H39.9998V35H32.3332ZM32.9998 45H26.3332L26.8332 54.1667L39.9998 58.5V51.5L33.1665 49.1667L32.9998 45Z" fill="#EEEEEE"/>
</svg>
