<svg width="80" height="80" viewBox="0 0 80 80" fill="none" xmlns="http://www.w3.org/2000/svg">
<path d="M10 70V10H70V70H10Z" fill="#FFD600"/>
<path d="M49.2302 54.9117C50.3835 56.785 51.6368 58.58 54.2918 58.58C56.5218 58.58 57.6918 57.4717 57.6918 55.9384C57.6918 54.1034 56.4818 53.4517 54.0285 52.3834L52.6835 51.81C48.8018 50.1634 46.2202 48.1 46.2202 43.7417C46.2202 39.725 49.2952 36.6684 54.1002 36.6684C57.5218 36.6684 59.9802 37.8534 61.7535 40.9567L57.5635 43.635C56.6418 41.9884 55.6452 41.34 54.1002 41.34C52.5235 41.34 51.5252 42.335 51.5252 43.635C51.5252 45.2417 52.5252 45.8917 54.8335 46.8867L56.1785 47.46C60.7535 49.4084 63.3335 51.3984 63.3335 55.8717C63.3335 60.6917 59.5268 63.3334 54.4168 63.3334C49.4185 63.3334 46.5802 60.825 45.0002 57.72L49.2302 54.9117ZM29.9202 55.0484C30.7635 56.5584 32.0452 57.72 33.8885 57.72C35.6518 57.72 36.6668 57.0234 36.6668 54.315V36.6667H42.2218V55.1684C42.2218 60.78 38.9668 63.3334 34.2135 63.3334C29.9185 63.3334 26.8185 60.4234 25.5552 57.72L29.9202 55.0484Z" fill="#000001"/>
</svg>
