<svg width="80" height="80" viewBox="0 0 80 80" fill="none" xmlns="http://www.w3.org/2000/svg">
<path d="M39.4164 41.4966C37.7531 38.815 36.5464 36.5916 34.8748 32.405C32.0481 25.3333 52.0664 18.9433 43.9498 6.66498C47.4681 15.1466 31.3214 20.39 29.8214 27.4533C28.4498 33.95 39.4081 41.4966 39.4164 41.4966Z" fill="#F44336"/>
<path d="M39.7969 28.7833C39.4769 32.9766 43.5119 35.2116 43.6285 38.275C43.7219 40.7683 41.2169 42.8466 41.2169 42.8466C41.2169 42.8466 45.7635 41.9533 47.1819 38.15C48.7569 33.9266 44.1252 31.035 44.6019 27.6533C45.0469 24.4233 54.6535 18.415 54.6535 18.415C54.6535 18.415 40.5185 19.3516 39.7969 28.7833Z" fill="#F44336"/>
<path d="M53.4733 41.7583C56.3967 41.1016 58.8617 42.9633 58.8617 45.1083C58.8617 49.9433 52.16 54.5133 52.16 54.5133C52.16 54.5133 62.535 53.2766 62.535 45.3383C62.535 40.0883 57.44 38.7766 53.4733 41.7583ZM48.5483 45.6583C48.5483 45.6583 51.7833 43.3533 52.645 42.4883C44.7067 44.1733 26.5817 44.4 26.5817 42.9366C26.5817 41.5883 32.4267 40.2066 32.4267 40.2066C32.4267 40.2066 19.4717 40.02 19.4717 43.8416C19.4717 47.825 36.43 48.11 48.5483 45.6583Z" fill="#1565C0"/>
<path d="M46.5585 49.2849C39.0435 51.7833 25.2019 50.9849 29.3019 47.6299C27.3052 47.6299 24.3452 49.2349 24.3452 50.7783C24.3452 53.8733 39.3152 56.2633 50.3952 51.7316L46.5585 49.2849Z" fill="#1565C0"/>
<path d="M31.1435 54.5649C28.4169 54.5649 26.6519 56.3216 26.6519 57.6016C26.6519 61.5866 42.9185 61.9883 49.3635 57.9433L45.2669 55.2233C40.4519 57.3399 28.3569 57.6316 31.1435 54.5649Z" fill="#1565C0"/>
<path d="M60.4683 61.0533C60.4683 59.4933 58.71 58.7583 58.08 58.4066C61.7933 67.3616 20.885 66.6666 20.885 61.38C20.885 60.1783 23.8967 59.0016 26.68 59.5583L24.3133 58.16C18.7667 57.29 15 59.7283 15 61.695C15 70.8666 60.4683 70.425 60.4683 61.0533Z" fill="#1565C0"/>
<path d="M64.9999 64.34C58.0899 71.165 40.5682 73.6516 22.9482 69.435C40.5682 76.94 64.9166 72.7133 64.9999 64.34Z" fill="#1565C0"/>
</svg>
