<svg width="80" height="80" viewBox="0 0 80 80" fill="none" xmlns="http://www.w3.org/2000/svg">
<path d="M40 10L29.9833 20.5833L19.95 31.15L10 41.6667V10H40Z" fill="#0D91D6"/>
<path d="M40 10H39.9333L29.95 20.55L19.9333 31.1333L10 41.6167V41.6667V41.8167V70L24.4833 55.5167L34.7833 45.2167L45.1 34.9L55.4167 24.5833L70 10H40Z" fill="#F88909"/>
<path d="M24.4833 55.5167L10 70V41.8167L24.4833 55.5167Z" fill="#C757BC"/>
<path d="M34.7833 45.2167L24.4833 55.5167L10 41.8167V41.6667L19.95 31.15L34.7833 45.2167Z" fill="#D3638F"/>
<path d="M45.1002 34.9L34.7835 45.2166L19.9502 31.15L29.9835 20.5833L45.1002 34.9Z" fill="#E07063"/>
<path d="M55.4167 24.5833L45.1001 34.9L29.9834 20.5833L40.0001 10L55.4167 24.5833Z" fill="#EC7D36"/>
<path d="M70 10L55.4167 24.5833L40 10H70Z" fill="#F88909"/>
<path d="M19.1833 31.9167L13.3167 38.1333L10 35V23.2333L19.1833 31.9167Z" fill="#0095D5"/>
<path d="M25.05 25.7L19.1833 31.9167L10 23.2333V11.45L25.05 25.7Z" fill="#2B88DA"/>
<path d="M30.9333 19.5L25.05 25.7L10 11.45V10H20.8833L30.9333 19.5Z" fill="#557BDE"/>
<path d="M36.8 13.2833L30.9333 19.5L20.8833 10H40L36.8 13.2833Z" fill="#806EE3"/>
<path d="M38.3333 41.6667L10 70H15.5833H29.2H66.6667L38.3333 41.6667Z" fill="#0095D5"/>
<path d="M42.8001 70H29.2001L19.6001 60.4166L26.4001 53.6166L42.8001 70Z" fill="#2B88DA"/>
<path d="M56.4332 70H42.7999L26.3999 53.6166L33.1999 46.8167L56.4332 70Z" fill="#557BDE"/>
<path d="M70.0002 70H56.4335L33.2002 46.8167L40.0002 40L70.0002 70Z" fill="#806EE3"/>
</svg>
