<svg width="70" height="70" viewBox="0 0 70 70" fill="none" xmlns="http://www.w3.org/2000/svg">
<path d="M14.6562 0C14.998 0 15.2988 0.109375 15.5723 0.273438L28.4648 7.66992C28.834 7.875 29.0801 8.14844 29.2031 8.47656C29.3262 8.77734 29.3262 9.06445 29.3262 9.24219V35.6836L38.7871 30.2559V16.543C38.7871 16.1875 38.8691 15.8594 39.0879 15.5586C39.293 15.2715 39.5664 15.0664 39.8672 14.9023L52.7188 7.51953C52.9375 7.39648 53.1836 7.30078 53.4707 7.30078C53.7578 7.30078 54.0176 7.39648 54.2363 7.51953L67.334 15.0527C67.6484 15.2305 67.8672 15.4629 68.0039 15.7773C68.127 16.0645 68.127 16.3516 68.127 16.5703V31.2266C68.127 31.5 68.0996 31.8145 67.9355 32.1016C67.7715 32.4023 67.5254 32.6074 67.2383 32.7715L67.2246 32.7852L55.1934 39.6895V53.3613C55.1934 53.6758 55.1523 54.0176 54.9746 54.3184C54.7969 54.6191 54.5234 54.8242 54.25 54.9883C54.25 54.9883 54.25 54.9883 54.2363 54.9883L28.5332 69.7266C28.2324 69.8906 27.918 70 27.5625 70C27.207 70 26.8926 69.877 26.5918 69.7266L26.5781 69.7129L0.970703 54.9609L0.902344 54.9199C0.751953 54.8242 0.546875 54.6875 0.382812 54.5234C0.123047 54.2637 0 53.9492 0 53.5391V9.00977C0 8.35352 0.410156 7.92969 0.751953 7.73828L13.7402 0.273438C14.0137 0.109375 14.3281 0 14.6699 0H14.6562ZM5.20898 9.17383L14.6426 14.6289L24.1035 9.17383L14.6426 3.74609L5.20898 9.17383ZM53.4707 21.916L62.9043 16.4883L53.4707 11.0605L44.0234 16.4883L53.4707 21.916ZM25.8672 12.168L16.4062 17.6094V43.0938L25.8672 37.6387V12.1543V12.168ZM12.9199 17.623L3.44531 12.1816V52.4043L25.8672 65.2832V54.4277L13.9316 47.6875L13.9043 47.6738C13.7266 47.5645 13.4668 47.4141 13.2754 47.168C13.043 46.8809 12.9336 46.5254 12.9336 46.1152V17.6094L12.9199 17.623ZM42.2734 30.2559L51.748 35.6699V24.9375L42.2734 19.4824V30.2559ZM55.1934 35.6699L64.668 30.2422V19.4688L55.1934 24.9238V35.6562V35.6699ZM27.5625 51.4199L49.957 38.6777L40.5234 33.2227L18.1836 46.0879L27.5625 51.4062V51.4199ZM29.3262 65.2969L51.748 52.418V41.6445L29.3262 54.4414V65.2969Z" fill="#FF291A"/>
</svg>
