<svg width="96" height="96" viewBox="0 0 96 96" fill="none" xmlns="http://www.w3.org/2000/svg">
<path d="M0.004 70.082H3.844V55.912L9.178 68.026C9.836 69.536 10.736 70.07 12.502 70.07C14.268 70.07 15.132 69.536 15.79 68.026L21.124 56.222V70.082H24.964V55.566C24.964 54.172 24.41 53.496 23.266 53.148C20.532 52.288 18.696 53.03 17.866 54.892L12.396 67.212L7.098 54.892C6.302 53.032 4.434 52.288 1.698 53.148C0.554 53.496 0 54.17 0 55.564V70.08L0.004 70.082ZM26.882 58.562H30.722V66.672C30.692 67.072 30.85 68.134 32.702 68.162C33.646 68.178 38.344 68.162 38.402 68.162V58.562H42.242C42.258 58.562 42.242 70.498 42.242 70.548C42.262 73.492 38.586 73.872 36.896 73.922H26.884V72.002C26.904 72.002 36.458 72.004 36.486 72.002C38.662 71.772 38.404 70.574 38.404 70.21V70.082H32.38C29.04 70.052 26.91 68.58 26.886 66.902C26.882 66.746 26.958 58.634 26.882 58.562Z" fill="url(#paint0_linear_232_35)"/>
<path d="M44.1618 70.082H53.7758C55.0358 70.082 56.2598 69.818 57.2318 69.362C58.8518 68.618 59.5198 67.612 59.5198 66.29V63.554C59.5198 60.602 55.8598 60.482 53.7598 60.482H49.9198C48.4098 60.482 48.1798 59.57 47.9998 58.562V56.642C48.1798 55.874 48.5158 54.842 49.8458 54.722C51.3918 54.722 59.5178 54.722 59.5178 54.722V52.802H50.3858C48.8758 52.802 44.1578 52.982 44.1578 56.642V59.016C44.1578 60.696 45.6338 62.064 48.8378 62.4C49.1978 62.424 49.5578 62.448 49.9158 62.448C49.9158 62.448 53.6478 62.376 53.7558 62.4C55.9158 62.4 55.6758 64.08 55.6758 64.32V66.24C55.6758 66.504 55.6158 68.16 53.7338 68.16C53.5898 68.16 44.1558 68.16 44.1558 68.16V70.082H44.1618ZM80.6398 66.16C80.6398 68.478 81.9498 69.778 85.4238 70.038C85.7478 70.06 86.0738 70.08 86.3998 70.08H95.9998V68.16H87.1298C85.1478 68.16 84.4798 67.328 84.4798 66.138V52.8H80.6398V66.16ZM61.4078 66.242V56.642C61.4078 54.602 62.4078 53.194 65.2398 52.802H66.5838H73.4778H74.5278C77.3598 53.194 78.6878 54.6 78.6878 56.642V66.206C78.6878 67.86 78.2578 68.748 76.8558 69.324L79.8318 72H75.5118L73.3718 70.08H70.8578L66.5858 70.104C65.9678 70.104 65.3158 70.018 64.5998 69.822C62.4518 69.236 61.4078 68.108 61.4078 66.242ZM65.2478 66.242C65.4438 67.176 66.1938 68.162 67.5278 68.162H71.2558L69.1198 66.242H73.4698L74.5078 67.206C74.5078 67.206 74.8798 66.902 74.8798 66.242C74.8798 65.582 74.8478 56.642 74.8478 56.642C74.6518 55.774 73.7718 54.722 72.4718 54.722H67.5298C66.0318 54.722 65.2498 55.818 65.2498 56.838L65.2478 66.242Z" fill="url(#paint1_linear_232_35)"/>
<path d="M92.3979 50.778C90.3359 50.722 88.7619 50.914 87.4159 51.48C87.0339 51.642 86.4239 51.646 86.3599 52.126C86.5699 52.346 86.6019 52.676 86.7699 52.946C87.0899 53.466 87.6339 54.164 88.1179 54.528C88.6479 54.928 89.1939 55.356 89.7599 55.702C90.7679 56.316 91.8939 56.668 92.8659 57.284C93.4379 57.646 94.0059 58.106 94.5659 58.514C94.8419 58.718 95.0259 59.032 95.3859 59.16C95.3859 59.14 95.3859 59.122 95.3859 59.102C95.1979 58.862 95.1479 58.532 94.9759 58.28C94.7219 58.026 94.4679 57.772 94.2139 57.518C93.4699 56.53 92.5219 55.66 91.5179 54.94C90.7159 54.364 88.9219 53.586 88.5859 52.654C88.5659 52.634 88.5479 52.616 88.5259 52.594C89.0939 52.53 89.7599 52.324 90.2839 52.184C91.1659 51.948 91.9519 52.01 92.8619 51.774C93.2719 51.656 93.6819 51.54 94.0919 51.422C94.0919 51.344 94.0919 51.266 94.0919 51.188C93.6319 50.716 93.3019 50.092 92.8019 49.664C91.4879 48.546 90.0559 47.43 88.5819 46.498C87.7639 45.982 86.7519 45.646 85.8859 45.208C85.5939 45.06 85.0819 44.984 84.8899 44.74C84.4339 44.16 84.1879 43.422 83.8359 42.748C83.0999 41.332 82.3759 39.784 81.7259 38.294C81.2799 37.278 80.9899 36.274 80.4359 35.362C77.7739 30.986 74.9079 28.344 70.4719 25.748C69.5279 25.196 68.3899 24.978 67.1879 24.692C66.5419 24.654 65.8979 24.614 65.2519 24.574C64.8579 24.408 64.4499 23.928 64.0779 23.694C62.6079 22.764 58.8359 20.744 57.7479 23.4C57.0599 25.076 58.7759 26.712 59.3899 27.562C59.8199 28.158 60.3719 28.826 60.6799 29.498C60.8819 29.938 60.9179 30.38 61.0899 30.846C61.5159 31.994 62.1899 33.302 62.7419 34.364C63.0199 34.902 63.3279 35.466 63.6799 35.946C63.8959 36.24 64.2659 36.37 64.3259 36.826C63.9639 37.332 63.9439 38.118 63.7399 38.762C62.8239 41.652 63.1699 45.242 64.5019 47.378C64.9099 48.034 65.8739 49.442 67.1979 48.902C68.3559 48.43 68.0979 46.968 68.4279 45.678C68.5019 45.386 68.4559 45.172 68.6039 44.976C68.6039 44.996 68.6039 45.014 68.6039 45.036C68.9559 45.738 69.3059 46.444 69.6599 47.146C70.4419 48.404 71.8279 49.718 72.9999 50.606C73.6079 51.066 74.0879 51.862 74.8759 52.13C74.8759 52.11 74.8759 52.092 74.8759 52.07C74.8559 52.07 74.8379 52.07 74.8159 52.07C74.6639 51.832 74.4239 51.734 74.2299 51.542C73.7719 51.092 73.2599 50.534 72.8819 50.018C71.8139 48.568 70.8699 46.98 70.0099 45.328C69.5999 44.538 69.2419 43.67 68.8959 42.866C68.7619 42.556 68.7639 42.088 68.4859 41.928C68.1059 42.516 67.5499 42.992 67.2559 43.686C66.7879 44.796 66.7259 46.152 66.5539 47.554C66.4499 47.59 66.4959 47.566 66.4359 47.612C65.6199 47.414 65.3319 46.576 65.0279 45.854C64.2599 44.03 64.1179 41.094 64.7939 38.996C64.9679 38.452 65.7579 36.742 65.4399 36.24C65.2879 35.738 64.7839 35.448 64.5039 35.066C64.1539 34.594 63.8079 33.97 63.5659 33.424C62.9379 32.002 62.3419 30.348 61.6799 28.91C61.3639 28.222 60.8299 27.528 60.3899 26.918C59.9039 26.242 59.3579 25.744 58.9819 24.926C58.8479 24.636 58.6659 24.17 58.8639 23.87C58.9279 23.668 59.0159 23.584 59.2159 23.518C59.5559 23.254 60.5019 23.604 60.8579 23.752C61.7979 24.142 62.5819 24.514 63.3779 25.042C63.7599 25.296 64.1459 25.786 64.6079 25.922C64.7839 25.922 64.9599 25.922 65.1359 25.922C65.9619 26.112 66.8859 25.982 67.6559 26.216C69.0199 26.63 70.2399 27.274 71.3479 27.974C74.7279 30.108 77.4899 33.144 79.3799 36.768C79.6839 37.352 79.8159 37.908 80.0819 38.526C80.6219 39.774 81.3039 41.058 81.8399 42.278C82.3759 43.496 82.8999 44.724 83.6579 45.738C84.0579 46.27 85.5979 46.556 86.2959 46.852C86.7859 47.06 87.5899 47.274 88.0539 47.554C88.9419 48.09 89.8019 48.728 90.6319 49.312C91.0559 49.606 92.3339 50.248 92.3979 50.778Z" fill="url(#paint2_linear_232_35)"/>
<path d="M66.1961 28.446C65.7661 28.438 65.4621 28.492 65.1401 28.564C65.1401 28.584 65.1401 28.602 65.1401 28.624C65.1601 28.624 65.1781 28.624 65.2001 28.624C65.4061 29.044 65.7661 29.318 66.0201 29.68C66.2161 30.09 66.4101 30.5 66.6061 30.91C66.6261 30.89 66.6441 30.872 66.6641 30.852C67.0261 30.596 67.1941 30.188 67.1921 29.562C67.0461 29.408 67.0241 29.216 66.8981 29.034C66.7301 28.788 66.4061 28.65 66.1961 28.446Z" fill="#00796B"/>
<defs>
<linearGradient id="paint0_linear_232_35" x1="19.6" y1="50.472" x2="22.162" y2="73.798" gradientUnits="userSpaceOnUse">
<stop stop-color="#058F92"/>
<stop offset="0.5" stop-color="#038489"/>
<stop offset="1" stop-color="#026D71"/>
</linearGradient>
<linearGradient id="paint1_linear_232_35" x1="68.4478" y1="51.288" x2="70.2018" y2="70.434" gradientUnits="userSpaceOnUse">
<stop stop-color="#FF9C0F"/>
<stop offset="0.813" stop-color="#D67E00"/>
</linearGradient>
<linearGradient id="paint2_linear_232_35" x1="70.0579" y1="23.432" x2="80.7099" y2="53.5" gradientUnits="userSpaceOnUse">
<stop stop-color="#058F92"/>
<stop offset="0.5" stop-color="#038489"/>
<stop offset="1" stop-color="#026D71"/>
</linearGradient>
</defs>
</svg>
