<svg width="80" height="80" viewBox="0 0 80 80" fill="none" xmlns="http://www.w3.org/2000/svg">
<path d="M40.0118 75.6983C39.0552 75.6983 38.1068 75.4483 37.2685 74.965L28.5352 69.7933C27.2302 69.0633 27.8668 68.805 28.2968 68.6567C30.0368 68.0483 30.3885 67.91 32.2452 66.855C32.4402 66.7433 32.6952 66.7833 32.8952 66.9017L39.6052 70.8833C39.8468 71.015 40.1918 71.015 40.4152 70.8833L66.5768 55.7817C66.8185 55.6433 66.9768 55.3633 66.9768 55.075V24.8867C66.9768 24.585 66.8202 24.3167 66.5718 24.1667L40.4218 9.07668C40.1802 8.93334 39.8585 8.93334 39.6168 9.07668L13.4702 24.165C13.2168 24.3083 13.0552 24.59 13.0552 24.8783V55.0683C13.0552 55.3567 13.2118 55.6317 13.4618 55.7683L20.6268 59.9067C24.5168 61.8517 26.8935 59.56 26.8935 57.255V27.46C26.8935 27.035 27.2268 26.7067 27.6535 26.7067H30.9668C31.3802 26.7067 31.7202 27.0333 31.7202 27.46V57.27C31.7202 62.4567 28.8918 65.4367 23.9735 65.4367C22.4602 65.4367 21.2685 65.4367 17.9418 63.8L11.0785 59.845C9.38183 58.8617 8.3335 57.0267 8.3335 55.07V24.88C8.3335 22.915 9.38183 21.0817 11.0768 20.1117L37.2668 5.00334C38.9235 4.06668 41.1235 4.06668 42.7685 5.00334L68.9252 20.1183C70.6118 21.0933 71.6668 22.9217 71.6668 24.8867V55.0767C71.6668 57.035 70.6118 58.8617 68.9235 59.845L42.7668 74.9517C41.9285 75.4367 40.9785 75.685 40.0102 75.685" fill="#21A366"/>
<path d="M48.0932 54.895C36.6466 54.895 34.2466 49.64 34.2466 45.2334C34.2466 44.815 34.5849 44.48 35.0049 44.48H38.3849C38.7582 44.48 39.0732 44.7517 39.1316 45.12C39.6416 48.5634 41.1616 50.3 48.0832 50.3C53.5966 50.3 55.9416 49.055 55.9416 46.13C55.9416 44.4467 55.2732 43.1967 46.7082 42.3584C39.5432 41.6517 35.1166 40.0734 35.1166 34.3434C35.1166 29.065 39.5699 25.9217 47.0282 25.9217C55.4049 25.9217 59.5566 28.83 60.0799 35.0767C60.0999 35.2934 60.0216 35.5017 59.8766 35.66C59.7332 35.81 59.5299 35.9017 59.3199 35.9017H55.9216C55.5683 35.9017 55.2599 35.6534 55.1882 35.3117C54.3699 31.69 52.3916 30.5317 47.0149 30.5317C40.9966 30.5317 40.2966 32.6267 40.2966 34.1984C40.2966 36.1034 41.1216 36.66 49.2416 37.735C57.2832 38.8017 61.1016 40.3084 61.1016 45.96C61.1016 51.6567 56.3466 54.925 48.0566 54.925" fill="#21A366"/>
</svg>
