<svg width="80" height="80" viewBox="0 0 80 80" fill="none" xmlns="http://www.w3.org/2000/svg">
<g clip-path="url(#clip0_235_72)">
<mask id="mask0_235_72" style="mask-type:luminance" maskUnits="userSpaceOnUse" x="0" y="18" width="80" height="43">
<path d="M0 39.2462C0 50.7081 17.9089 60.0001 39.9997 60.0001C62.0906 60.0001 79.9995 50.7081 79.9995 39.2462C79.9995 27.7843 62.0906 18.4923 39.9997 18.4923C17.9089 18.4923 0 27.7845 0 39.2462Z" fill="white"/>
</mask>
<g mask="url(#mask0_235_72)">
<path d="M0 39.2462C0 50.7081 17.9089 60.0001 39.9997 60.0001C62.0906 60.0001 79.9995 50.7081 79.9995 39.2462C79.9995 27.7843 62.0906 18.4923 39.9997 18.4923C17.9089 18.4923 0 27.7845 0 39.2462Z" fill="url(#paint0_radial_235_72)"/>
</g>
<mask id="mask1_235_72" style="mask-type:luminance" maskUnits="userSpaceOnUse" x="-2" y="16" width="84" height="47">
<path d="M-1.6665 16.1292H81.6663V62.3632H-1.6665V16.1292Z" fill="white"/>
</mask>
<g mask="url(#mask1_235_72)">
<path d="M39.9998 58.459C61.2279 58.459 78.437 49.8572 78.437 39.2463C78.437 28.6353 61.2279 20.0335 39.9998 20.0335C18.7716 20.0335 1.5625 28.6353 1.5625 39.2463C1.5625 49.8572 18.7716 58.459 39.9998 58.459Z" fill="#777BB3"/>
</g>
<mask id="mask2_235_72" style="mask-type:luminance" maskUnits="userSpaceOnUse" x="-2" y="16" width="84" height="47">
<path d="M-1.6665 16.1292H81.6663V62.3632H-1.6665V16.1292Z" fill="white"/>
</mask>
<g mask="url(#mask2_235_72)">
<path d="M21.732 41.6282C23.4775 41.6282 24.7806 41.3107 25.6049 40.685C26.4206 40.0657 26.984 38.9923 27.2793 37.4953C27.5546 36.096 27.4497 35.1189 26.9676 34.5917C26.4747 34.0531 25.409 33.78 23.8003 33.78H21.0109L19.4643 41.6284H21.7318L21.732 41.6282ZM12.6082 51.296C12.4787 51.296 12.3557 51.2389 12.2734 51.1402C12.2327 51.0914 12.2034 51.0345 12.1877 50.9733C12.1719 50.9121 12.1701 50.8482 12.1823 50.7863L16.2806 29.9881C16.2999 29.8906 16.3529 29.8027 16.4306 29.7395C16.5084 29.6763 16.606 29.6418 16.7067 29.6418H25.5397C28.3157 29.6418 30.382 30.3838 31.6807 31.8517C32.9864 33.3258 33.3896 35.3866 32.879 37.9763C32.6713 39.0314 32.3139 40.0112 31.8171 40.8888C31.3194 41.7671 30.662 42.5797 29.8626 43.3046C28.9054 44.1882 27.8221 44.8289 26.6456 45.2059C25.4877 45.5779 24.0009 45.7667 22.226 45.7667H18.6494L17.628 50.9498C17.6088 51.0473 17.5558 51.1352 17.4781 51.1984C17.4004 51.2616 17.3028 51.2962 17.2021 51.2963H12.6082V51.296Z" fill="black"/>
<path d="M21.369 34.208H23.8007C25.7422 34.208 26.4169 34.6282 26.646 34.8787C27.0262 35.2945 27.098 36.1712 26.8536 37.414C26.579 38.8053 26.0701 39.7917 25.3406 40.3457C24.5938 40.9128 23.3797 41.2002 21.7324 41.2002H19.9911L21.369 34.208ZM25.54 29.2136H16.707C16.5055 29.2136 16.3104 29.2827 16.1549 29.4091C15.9995 29.5355 15.8934 29.7113 15.855 29.9064L11.7566 50.7048C11.7322 50.8288 11.7359 50.9565 11.7674 51.0789C11.799 51.2012 11.8575 51.3152 11.939 51.4127C12.0204 51.5101 12.1227 51.5885 12.2384 51.6424C12.3542 51.6963 12.4806 51.7242 12.6086 51.7242H17.2021C17.4036 51.7243 17.5988 51.6551 17.7542 51.5287C17.9097 51.4023 18.0158 51.2265 18.0542 51.0314L19.0073 46.1947H22.2263C24.0466 46.1947 25.579 45.9989 26.7807 45.6129C28.0162 45.217 29.1534 44.5456 30.1595 43.6175C30.9916 42.8623 31.6785 42.0147 32.1965 41.0978C32.7144 40.181 33.0891 39.158 33.3058 38.0581C33.8433 35.332 33.4067 33.149 32.0081 31.5702C30.6233 30.0065 28.4471 29.2137 25.5403 29.2137M18.9383 42.0565H21.7324C23.5843 42.0565 24.9639 41.7126 25.8701 41.0242C26.7764 40.3358 27.3881 39.187 27.7058 37.5771C28.0096 36.0314 27.8713 34.9406 27.2905 34.305C26.7098 33.6694 25.5458 33.3518 23.801 33.3518H20.6537L18.9385 42.0563M25.5404 30.0698C28.1977 30.0698 30.1362 30.7576 31.3546 32.1332C32.5731 33.5088 32.9398 35.4292 32.4537 37.8946C32.2536 38.9102 31.9152 39.8387 31.4388 40.68C30.9624 41.5214 30.339 42.2915 29.5693 42.9894C28.6521 43.8361 27.6331 44.4393 26.5119 44.7988C25.3907 45.1592 23.9627 45.3385 22.2266 45.3385H18.2921L17.2026 50.8681H12.6092L16.707 30.0698H25.5401" fill="white"/>
<path d="M43.4115 45.7665C43.2819 45.7665 43.1591 45.7094 43.0767 45.6106C42.9944 45.5119 42.9607 45.3823 42.9856 45.2567L44.7984 36.0542C44.9708 35.179 44.9283 34.5509 44.6787 34.2854C44.5259 34.1232 44.067 33.8511 42.7101 33.8511H39.4257L37.1464 45.4198C37.1272 45.5174 37.0741 45.6053 36.9964 45.6685C36.9187 45.7317 36.821 45.7663 36.7203 45.7663H32.163C32.099 45.7663 32.0358 45.7524 31.9779 45.7254C31.92 45.6985 31.8689 45.6593 31.8281 45.6106C31.7874 45.5618 31.7581 45.5048 31.7424 45.4436C31.7266 45.3825 31.7248 45.3186 31.737 45.2566L35.8353 24.4584C35.8546 24.3609 35.9076 24.273 35.9853 24.2098C36.0631 24.1467 36.1607 24.1121 36.2614 24.1121H40.8187C40.8827 24.1121 40.9459 24.1261 41.0038 24.153C41.0617 24.1799 41.1128 24.2192 41.1535 24.2679C41.1943 24.3166 41.2235 24.3736 41.2393 24.4348C41.2551 24.496 41.2569 24.5599 41.2447 24.6218L40.2557 29.6416H43.789C46.4806 29.6416 48.3057 30.1097 49.3691 31.0726C50.4541 32.0549 50.7908 33.6255 50.3741 35.7417L48.4673 45.4201C48.4481 45.5177 48.3951 45.6056 48.3174 45.6688C48.2396 45.732 48.142 45.7666 48.0413 45.7666H43.4117L43.4115 45.7665Z" fill="black"/>
<path d="M40.8186 23.6841H36.2613C36.0599 23.6841 35.8646 23.7532 35.7092 23.8796C35.5537 24.006 35.4476 24.1818 35.4092 24.3769L31.3108 45.175C31.2864 45.299 31.2901 45.4267 31.3217 45.5491C31.3532 45.6715 31.4118 45.7855 31.4932 45.8829C31.5746 45.9804 31.6769 46.0588 31.7927 46.1127C31.9085 46.1665 32.035 46.1945 32.163 46.1945H36.7202C36.9217 46.1945 37.1169 46.1253 37.2724 45.9989C37.4279 45.8725 37.5339 45.6967 37.5724 45.5017L39.7834 34.2792H42.7102C44.0648 34.2792 44.3491 34.5646 44.3605 34.5769C44.4427 34.6639 44.5508 35.0678 44.3724 35.9725L42.5596 45.175C42.5352 45.299 42.5389 45.4267 42.5704 45.5491C42.602 45.6715 42.6605 45.7855 42.742 45.8829C42.8234 45.9804 42.9257 46.0588 43.0415 46.1127C43.1573 46.1665 43.2837 46.1945 43.4118 46.1945H48.0414C48.2428 46.1945 48.438 46.1253 48.5935 45.9989C48.749 45.8725 48.855 45.6967 48.8935 45.5017L50.8003 35.8232C51.2478 33.5515 50.865 31.8471 49.6632 30.7574C48.5162 29.7186 46.5949 29.2135 43.7894 29.2135H40.7824L41.6712 24.7035C41.6956 24.5795 41.6919 24.4518 41.6604 24.3294C41.6289 24.207 41.5703 24.093 41.4889 23.9955C41.4074 23.8981 41.3051 23.8196 41.1893 23.7657C41.0735 23.7119 40.9471 23.6839 40.819 23.6839M40.819 24.5401L39.7296 30.0696H43.7895C46.344 30.0696 48.106 30.5094 49.0759 31.3879C50.0458 32.2663 50.336 33.691 49.9486 35.66L48.0418 45.3383H43.4122L45.225 36.136C45.4313 35.0892 45.3555 34.3751 44.9972 33.9944C44.639 33.6137 43.8766 33.423 42.7107 33.423H39.068L36.7205 45.3383H32.1633L36.2616 24.5401H40.8189" fill="white"/>
<path d="M57.5848 41.6282C59.3303 41.6282 60.6334 41.3107 61.4578 40.685C62.2735 40.0657 62.8368 38.9926 63.1323 37.4953C63.4076 36.096 63.3027 35.1189 62.8205 34.5917C62.3276 34.0531 61.2619 33.78 59.6531 33.78H56.8638L55.3172 41.6284H57.5847L57.5848 41.6282ZM48.4613 51.296C48.3319 51.296 48.2089 51.2389 48.1266 51.1402C48.0858 51.0915 48.0565 51.0345 48.0407 50.9733C48.025 50.9121 48.0231 50.8482 48.0353 50.7863L52.1336 29.9881C52.1529 29.8906 52.2059 29.8026 52.2837 29.7395C52.3615 29.6763 52.4591 29.6417 52.5598 29.6418H61.3927C64.169 29.6418 66.235 30.3838 67.5338 31.8517C68.8395 33.3258 69.2425 35.3863 68.7322 37.9763C68.5242 39.0314 68.1669 40.0112 67.67 40.8888C67.1723 41.7671 66.5149 42.5797 65.7154 43.3046C64.7583 44.1882 63.6749 44.8289 62.4984 45.2059C61.3406 45.5779 59.8538 45.7667 58.0789 45.7667H54.5018L53.4808 50.9498C53.4616 51.0474 53.4086 51.1353 53.3308 51.1985C53.2531 51.2617 53.1554 51.2963 53.0546 51.2963H48.4612L48.4613 51.296Z" fill="black"/>
<path d="M57.2219 34.208H59.6536C61.5951 34.208 62.2697 34.6282 62.4989 34.8787C62.8794 35.2945 62.951 36.1712 62.7065 37.4138C62.4319 38.8051 61.9228 39.7917 61.1935 40.3457C60.4467 40.9128 59.2326 41.2002 57.5853 41.2002H55.8444L57.2219 34.208ZM61.3929 29.2136H52.5599C52.3584 29.2136 52.1632 29.2827 52.0078 29.4091C51.8524 29.5355 51.7463 29.7113 51.7079 29.9064L47.6097 50.7048C47.5853 50.8288 47.589 50.9565 47.6205 51.0789C47.652 51.2012 47.7106 51.3152 47.792 51.4127C47.8734 51.5101 47.9757 51.5885 48.0915 51.6424C48.2072 51.6963 48.3337 51.7242 48.4617 51.7242H53.0551C53.2566 51.7243 53.4518 51.6551 53.6073 51.5287C53.7627 51.4023 53.8688 51.2265 53.9072 51.0314L54.8602 46.1947H58.0792C59.8995 46.1947 61.4319 45.9989 62.6336 45.6129C63.8691 45.217 65.0063 44.5456 66.0126 43.6172C66.8448 42.8623 67.53 42.0147 68.0494 41.0978C68.5687 40.181 68.942 39.158 69.1587 38.0581C69.6962 35.3319 69.2596 33.1489 67.861 31.5701C66.4762 30.0065 64.3001 29.2137 61.3932 29.2137M54.7913 42.0565H57.5853C59.4371 42.0565 60.8168 41.7126 61.723 41.0242C62.6293 40.3358 63.2409 39.187 63.5586 37.5771C63.8628 36.0314 63.7243 34.9406 63.1434 34.305C62.5626 33.6694 61.3986 33.3518 59.6539 33.3518H56.5066L54.7915 42.0563M61.3933 30.0698C64.0505 30.0698 65.989 30.7576 67.2075 32.1332C68.4259 33.5088 68.7927 35.4292 68.3066 37.8946C68.1065 38.9102 67.7681 39.8387 67.2917 40.68C66.8153 41.5214 66.1919 42.2915 65.4222 42.9894C64.505 43.8361 63.486 44.4393 62.3648 44.7988C61.2436 45.1592 59.8156 45.3385 58.0795 45.3385H54.1449L53.0555 50.8681H48.4621L52.5605 30.0699H61.3934" fill="white"/>
</g>
</g>
<defs>
<radialGradient id="paint0_radial_235_72" cx="0" cy="0" r="1" gradientUnits="userSpaceOnUse" gradientTransform="translate(24.016 25.7888) scale(52.5254 51.8075)">
<stop stop-color="#AEB2D5"/>
<stop offset="0.3" stop-color="#AEB2D5"/>
<stop offset="0.75" stop-color="#484C89"/>
<stop offset="1" stop-color="#484C89"/>
</radialGradient>
<clipPath id="clip0_235_72">
<rect width="80" height="80" fill="white"/>
</clipPath>
</defs>
</svg>
