<svg width="76" height="76" viewBox="0 0 76 76" fill="none" xmlns="http://www.w3.org/2000/svg">
<path d="M38 54.948C16.3353 54.948 0 47.6615 0 38C0 28.3385 16.3353 21.052 38 21.052C59.6647 21.052 76 28.3385 76 38C76 47.6615 59.6647 54.948 38 54.948ZM38 25.802C18.4062 25.802 4.75 32.2288 4.75 38C4.75 43.7713 18.4062 50.198 38 50.198C57.5938 50.198 71.25 43.7713 71.25 38C71.25 32.2288 57.5938 25.802 38 25.802Z" fill="#4E7AB5"/>
<path d="M23.8783 71.25C22.2158 71.25 20.7053 70.8652 19.38 70.1005C17.2188 68.856 15.6608 66.652 14.877 63.7212C12.7633 55.822 16.1785 42.4697 23.5838 29.7065C32.262 14.7773 43.7285 4.75 52.1265 4.75C53.789 4.75 55.2995 5.13475 56.6248 5.8995C58.7813 7.13925 60.3393 9.34325 61.123 12.2692C63.2368 20.1733 59.8215 33.5255 52.4115 46.2887C43.7475 61.218 32.281 71.25 23.8783 71.25ZM52.1265 9.5C46.645 9.5 36.2188 17.4183 27.6925 32.0957C20.995 43.6382 17.689 55.8552 19.4655 62.4957C19.9263 64.201 20.691 65.3742 21.7455 65.9823C26.3578 68.6327 38.494 60.8047 48.3028 43.8995C55.005 32.3522 58.311 20.1353 56.5345 13.4948C56.0738 11.7943 55.309 10.621 54.2593 10.0177C53.6513 9.671 52.953 9.5 52.1265 9.5Z" fill="#4E7AB5"/>
<path d="M52.1265 71.25C43.7237 71.25 32.2572 61.218 23.5885 46.2935C16.1785 33.535 12.7633 20.1828 14.877 12.2788C15.6608 9.348 17.2188 7.13925 19.38 5.8995C20.7052 5.13475 22.2205 4.75 23.8782 4.75C32.2762 4.75 43.7427 14.782 52.4115 29.716C59.8215 42.4793 63.2367 55.8267 61.1182 63.7308C60.3345 66.6615 58.7812 68.8655 56.6247 70.1005C55.2995 70.8652 53.7842 71.25 52.1265 71.25ZM23.8782 9.5C23.0517 9.5 22.3535 9.671 21.7455 10.0177C20.6863 10.6258 19.9215 11.799 19.4655 13.509C17.689 20.1495 20.995 32.3665 27.6972 43.909C36.214 58.5818 46.6402 66.5 52.1265 66.5C52.9577 66.5 53.6512 66.329 54.2592 65.9823C55.3137 65.379 56.0785 64.2057 56.5345 62.5005C58.3157 55.86 55.0097 43.643 48.3075 32.1005C39.786 17.4182 29.3597 9.5 23.8782 9.5Z" fill="#4E7AB5"/>
<path d="M42.75 38C42.75 40.6267 40.6267 42.75 38 42.75C35.3733 42.75 33.25 40.6267 33.25 38C33.25 35.3733 35.3733 33.25 38 33.25C40.6267 33.25 42.75 35.3733 42.75 38Z" fill="#8BB7F0"/>
<path d="M38 45.125C34.0717 45.125 30.875 41.9283 30.875 38C30.875 34.0717 34.0717 30.875 38 30.875C41.9283 30.875 45.125 34.0717 45.125 38C45.125 41.9283 41.9283 45.125 38 45.125ZM38 35.625C36.6937 35.625 35.625 36.689 35.625 38C35.625 39.311 36.6937 40.375 38 40.375C39.3062 40.375 40.375 39.311 40.375 38C40.375 36.689 39.3062 35.625 38 35.625Z" fill="#4E7AB5"/>
</svg>
