<svg width="80" height="80" viewBox="0 0 80 80" fill="none" xmlns="http://www.w3.org/2000/svg">
<path d="M40 16.0067C29.3333 16.0067 22.6667 21.3383 20 32.0017C24 26.67 28.6667 24.6717 34 26.0033C37.0433 26.7633 39.2183 28.9717 41.6267 31.415C45.5467 35.3933 50.085 40 60 40C70.6667 40 77.3333 34.6683 80 24.0033C76 29.335 71.3333 31.335 66 30.0033C62.9583 29.2433 60.7833 27.035 58.375 24.5917C54.4533 20.6117 49.9133 16.0067 40 16.0067ZM20 40C9.33333 40 2.66667 45.3317 0 55.9967C4 50.665 8.66667 48.665 14 49.9983C17.0417 50.76 19.2167 52.9666 21.625 55.4083C25.5467 59.3883 30.0867 63.995 40 63.995C50.6667 63.995 57.3333 58.6633 60 47.9983C56 53.33 51.3333 55.33 46 53.9967C42.9567 53.2366 40.7817 51.0283 38.3733 48.5867C34.4533 44.6067 29.915 40 20 40Z" fill="#00ACC1"/>
</svg>
