<svg width="76" height="76" viewBox="0 0 76 76" fill="none" xmlns="http://www.w3.org/2000/svg">
<path d="M71.0281 15.7953L39.6195 71.9593C38.9704 73.1183 37.3047 73.1263 36.646 71.972L4.61522 15.8001C3.89797 14.5429 4.97305 13.0198 6.39805 13.2747L37.8415 18.8955C38.0425 18.9319 38.2468 18.9303 38.4479 18.8939L69.2326 13.2826C70.6529 13.0229 71.7327 14.535 71.0281 15.7953Z" fill="url(#paint0_linear_234_69)"/>
<path d="M53.1586 4.76582L30.1132 9.28149C29.7348 9.3559 29.4546 9.67732 29.4308 10.0621L28.0137 34.0037C27.9805 34.5673 28.4982 35.0059 29.0492 34.8777L35.4649 33.3972C36.065 33.2595 36.6081 33.7867 36.4846 34.3916L34.5782 43.7253C34.45 44.3539 35.039 44.8907 35.6533 44.7038L39.6164 43.5005C40.2307 43.3137 40.8213 43.852 40.6915 44.4822L37.6626 59.1438C37.4726 60.0606 38.6933 60.5609 39.2016 59.774L39.542 59.2483L58.3203 21.7724C58.6354 21.1454 58.0923 20.4297 57.4036 20.5627L50.7995 21.8373C50.1788 21.9577 49.6516 21.3797 49.8257 20.7717L54.1356 5.82823C54.3097 5.2234 53.7809 4.6439 53.1586 4.76582Z" fill="url(#paint1_linear_234_69)"/>
<defs>
<linearGradient id="paint0_linear_234_69" x1="21.0819" y1="-1.43449" x2="60.1744" y2="51.6531" gradientUnits="userSpaceOnUse">
<stop stop-color="#41D1FF"/>
<stop offset="1" stop-color="#9231BE"/>
</linearGradient>
<linearGradient id="paint1_linear_234_69" x1="40.378" y1="8.29032" x2="58.7906" y2="134.599" gradientUnits="userSpaceOnUse">
<stop stop-color="#FED100"/>
<stop offset="1" stop-color="#E36001"/>
</linearGradient>
</defs>
</svg>
